PathFileType	4	(X/Y/Z)	C:/Users/opensim2020/Desktop/walking_exp_matlab/subject01_walking06_straight_01.trc																																																																																																																															
DataRate	CameraRate	NumFrames	NumMarkers	Units	OrigDataRate	OrigDataStartFrame	OrigNumFrames																																																																																																																											
100	100	7	43	mm	100	922	251																																																																																																																											
Frame#	Time	LFHD			RFHD			LBHD			RBHD			C7			T10			CLAV			STRN			RBAK			LSHO			LUPA			LELB			LFRM			LWRA			LWRB			LFIN			RSHO			RUPA			RELB			RFRM			RWRA			RWRB			RFIN			LASI			RASI			LPSI			RPSI			LTHI			LKNE			LTIB			LANK			LHEE			LTOE			RTHI			RKNE			RTIB			RANK			RHEE			RTOE			*39			*40			*41			*42		
		X1	Y1	Z1	X2	Y2	Z2	X3	Y3	Z3	X4	Y4	Z4	X5	Y5	Z5	X6	Y6	Z6	X7	Y7	Z7	X8	Y8	Z8	X9	Y9	Z9	X10	Y10	Z10	X11	Y11	Z11	X12	Y12	Z12	X13	Y13	Z13	X14	Y14	Z14	X15	Y15	Z15	X16	Y16	Z16	X17	Y17	Z17	X18	Y18	Z18	X19	Y19	Z19	X20	Y20	Z20	X21	Y21	Z21	X22	Y22	Z22	X23	Y23	Z23	X24	Y24	Z24	X25	Y25	Z25	X26	Y26	Z26	X27	Y27	Z27	X28	Y28	Z28	X29	Y29	Z29	X30	Y30	Z30	X31	Y31	Z31	X32	Y32	Z32	X33	Y33	Z33	X34	Y34	Z34	X35	Y35	Z35	X36	Y36	Z36	X37	Y37	Z37	X38	Y38	Z38	X39	Y39	Z39	X40	Y40	Z40	X41	Y41	Z41	X42	Y42	Z42	X43	Y43	Z43
																																																																																																																																		
157	1.56	-29.84519	1676.24792	1451.07751	-2.4337	1684.72058	1561.73169	-125.96952	1598.56836	1473.18347	-99.24799	1605.74451	1590.53027	-125.32519	1427.09778	1498.38757	-148.57362	1133.29358	1494.58337	20.84173	1365.47986	1495.30188	70.8185	1211.78833	1483.3551	-171.50742	1227.76208	1566.97876	-41.33767	1397.83813	1336.6051	-59.05735	1217.94385	1243.04993	-58.68107	1064.0741	1233.38452	12.29922	970.86157	1210.7843	122.66122	888.14453	1231.78687	73.16992	865.03857	1208.21094	141.46095	814.95581	1200.7417	-43.22435	1383.80273	1648.16638	-103.85979	1179.06458	1737.98584	-102.8306	1055.47607	1736.02454	-82.35426	937.02429	1764.67188	-7.07616	817.06757	1748.64038	-53.73503	819.06641	1783.87842	-20.45401	740.06738	1783.20667	26.20325	931.35437	1377.43884	37.69963	936.63861	1592.98877	-157.10193	937.98358	1438.35815	-148.5992	944.11615	1584.2229	12.24263	594.56189	1314.93848	-3.56211	461.27252	1319.09607	-154.64711	354.12973	1308.35046	-319.56345	212.39951	1354.36169	-355.3443	234.68745	1410.92139	-300.83319	62.42385	1358.29919	25.70537	603.42462	1645.78564	58.5293	449.52518	1614.20215	20.32647	276.12277	1619.17603	10.39139	73.09228	1564.33203	-38.4413	35.41537	1515.56653	151.71886	36.058	1561.74268	-27.45486	1713.1908	1543.18994	1973.0365	1023.94122	-3101.90601	2012.60693	1022.13629	-3140.70996	NaN	NaN	NaN
158	1.57	-20.83865	1677.01147	1452.38611	6.58688	1685.40906	1562.92651	-116.6841	1599.0426	1474.4325	-89.95219	1606.17493	1591.75879	-115.61311	1427.86938	1499.52649	-139.38412	1134.15491	1496.35486	30.53611	1366.15222	1496.1908	80.25266	1212.3363	1484.31787	-161.96625	1228.84485	1568.88098	-31.99413	1398.35889	1337.54065	-51.5342	1218.32031	1244.57117	-51.71698	1064.38879	1235.19934	16.42303	969.94617	1212.63159	125.32538	885.17938	1233.31274	75.30808	862.98944	1209.9469	142.46144	811.36078	1202.41443	-32.95882	1384.66577	1649.15564	-91.99477	1179.99841	1740.09436	-90.74009	1056.31909	1738.29565	-68.79014	937.98505	1766.77869	7.75079	818.94678	1750.3335	-38.6595	820.50647	1786.05994	-4.33634	741.79584	1784.86975	35.22187	931.93079	1378.79431	46.09769	936.80133	1594.72083	-148.18182	937.99146	1439.39514	-140.23051	944.40826	1585.18152	27.77888	596.37921	1315.41687	15.38704	463.22812	1319.99597	-134.85287	355.81415	1308.36829	-301.46994	217.07056	1356.04871	-337.1904	238.43233	1413.62878	-282.79913	67.19437	1355.66907	30.819	603.39032	1646.71521	61.83889	449.21378	1615.34998	21.76516	275.74591	1619.41028	10.55764	73.05022	1564.37256	-38.49847	35.36434	1515.33411	151.84206	35.90457	1561.73682	-18.40834	1713.92078	1544.49927	1973.19141	1023.3269	-3101.92798	2012.59729	1022.0509	-3140.70093	NaN	NaN	NaN
159	1.58	-11.8426	1677.66614	1453.4325	15.76133	1686.17761	1564.08777	-107.5878	1599.51099	1475.5011	-80.61437	1606.5946	1592.87769	-105.91106	1428.72058	1500.82861	-130.32684	1135.06042	1497.99341	40.15031	1366.62183	1496.88049	87.98857	1212.48315	1484.99451	-152.52713	1229.93201	1570.65881	-22.72236	1398.91602	1338.45886	-44.17006	1218.71521	1246.21997	-46.06099	1064.9679	1237.09973	20.57173	969.16217	1214.37219	127.75935	882.21906	1234.78918	77.21947	860.90729	1211.6405	143.48274	808.09161	1203.98352	-22.68676	1385.52856	1650.09924	-80.15809	1180.92468	1742.1062	-78.54362	1057.14465	1740.48401	-55.08182	939.04645	1768.94202	22.77859	820.98132	1751.97168	-23.26874	821.86407	1787.85144	12.01092	743.72693	1786.78943	44.16056	932.53107	1380.02283	54.3331	936.98077	1596.49414	-139.4498	938.24561	1440.3114	-131.75858	944.54938	1585.90649	43.0181	598.45557	1315.78235	34.1518	465.47012	1320.75903	-114.98937	357.62854	1308.98169	-282.84415	220.93311	1358.02771	-318.31973	240.50348	1416.49756	-262.83023	71.30132	1352.94812	35.69928	603.31824	1647.52551	65.07145	448.72546	1616.31628	23.62064	275.53659	1619.9967	10.70438	73.10495	1564.39294	-38.45245	35.51048	1515.41089	151.91803	35.79221	1561.76672	-9.42382	1714.55408	1545.65466	1973.05957	1023.55475	-3101.96704	2012.5896	1022.04974	-3140.78809	NaN	NaN	NaN
160	1.59	-2.51766	1678.30811	1454.5116	24.73835	1686.77148	1565.01355	-98.09393	1599.80762	1476.57507	-71.25781	1607.00317	1593.89514	-96.32368	1429.46631	1502.00232	-121.59784	1136.19568	1499.50696	49.79549	1367.03503	1497.65051	97.31015	1212.78503	1485.98096	-143.10338	1230.99341	1572.24146	-13.45292	1399.49915	1339.39893	-36.79973	1219.04907	1247.69958	-39.77857	1065.64685	1238.95386	24.76228	968.48291	1216.1228	130.1761	879.36078	1236.24988	79.02377	859.06555	1213.34985	144.24373	804.66309	1205.68396	-12.55427	1386.37598	1650.93042	-68.23667	1181.92407	1744.12817	-66.28242	1058.01038	1742.70715	-41.32132	940.12305	1771.02795	37.68886	822.93085	1753.47327	-7.89794	823.45203	1789.95593	28.41476	745.75372	1788.61816	53.78487	933.47699	1381.53271	62.48554	937.19427	1598.28137	-130.73138	938.67944	1441.07202	-123.62815	944.79565	1586.56006	57.98095	600.74146	1316.1886	52.87331	468.10831	1321.56372	-95.44211	359.75119	1310.04236	-263.55307	223.91418	1360.1062	-299.16794	241.47203	1419.54578	-241.59521	74.9674	1350.43762	40.55118	603.36664	1648.33545	68.38345	448.28604	1617.09448	25.62988	275.6514	1620.66162	10.75627	73.09768	1564.43225	-38.4958	35.69682	1515.39392	152.00516	35.7133	1561.78882	-0.45283	1715.13733	1546.6189	1973.14026	1023.32153	-3101.86841	2012.60193	1022.03412	-3140.68262	NaN	NaN	NaN
161	1.6	6.49632	1678.84167	1455.43127	33.93744	1687.47217	1565.96606	-88.89937	1600.18567	1477.45398	-61.89128	1607.36182	1594.81775	-86.72234	1430.28735	1503.14648	-112.5341	1136.84705	1500.6908	59.34136	1367.43579	1498.37854	106.35921	1213.03088	1486.93567	-133.80479	1232.09473	1573.73999	-4.28353	1400.06799	1340.31226	-29.36776	1219.44373	1249.34961	-33.56649	1066.2074	1240.7146	28.92213	967.98303	1217.77783	132.41299	876.48431	1237.71716	80.81782	857.26758	1214.95447	144.4906	801.25092	1207.5022	-2.52591	1387.16199	1651.77905	-56.30842	1182.84302	1746.01965	-53.96276	1058.8457	1744.91931	-27.39114	941.28381	1773.16394	52.80215	825.07373	1754.98621	7.71166	825.03778	1791.84399	44.99145	747.8847	1790.42444	62.6562	934.28394	1383.28162	70.58678	937.46338	1600.10339	-121.96964	939.28162	1441.72144	-115.64744	945.19385	1587.14404	72.70301	603.04321	1316.59814	71.39053	470.71884	1322.35876	-75.89154	361.82208	1311.7196	-243.66408	225.43181	1361.93091	-280.07248	241.16136	1422.40295	-218.30162	78.22361	1348.38892	45.41042	603.38159	1649.0863	71.71118	447.71503	1617.70569	27.94595	275.54761	1621.20264	10.98303	73.21458	1564.52222	-38.26247	35.98756	1515.53735	152.05952	35.59343	1561.81238	8.59085	1715.70203	1547.49866	1973.15955	1023.24658	-3101.99194	2012.55054	1022.00085	-3140.70093	NaN	NaN	NaN
162	1.61	15.62798	1679.34375	1456.1001	43.00931	1687.98376	1566.67358	-79.60587	1600.41992	1478.32373	-52.58367	1607.72742	1595.66833	-77.25058	1431.021	1504.23242	-103.8305	1137.68311	1501.78516	68.76505	1367.85938	1499.07886	115.44382	1213.30054	1487.92859	-124.57232	1233.12964	1575.1123	4.84868	1400.5918	1341.20752	-22.03031	1219.86011	1250.81641	-27.37572	1066.81213	1242.56677	33.06981	967.50482	1219.48755	134.56592	873.73767	1239.19324	81.89064	855.73584	1216.18701	144.99336	798.11646	1209.20435	7.34514	1387.96338	1652.58618	-44.55297	1183.74255	1747.87732	-41.65378	1059.67883	1747.07007	-13.43063	942.38446	1775.15332	68.04413	827.2243	1756.40137	23.30834	826.71606	1793.75366	61.61349	750.086	1792.19482	71.80875	935.12146	1384.61157	78.56068	937.76746	1601.82922	-113.18056	940.00531	1442.26331	-107.99357	945.78198	1587.67944	87.32189	605.50403	1316.98523	89.75	473.44699	1322.99536	-56.84391	363.91553	1313.60327	-223.55675	225.97885	1363.66797	-260.98495	239.39766	1424.75549	-192.71603	80.99441	1346.75854	50.39273	603.40729	1649.88245	74.96261	447.57248	1618.36084	30.21847	275.51044	1621.51001	11.24388	73.27942	1564.59985	-38.35166	36.21798	1515.38586	152.21246	35.55686	1561.89697	17.61975	1716.19385	1548.25635	1973.10217	1023.48114	-3101.83936	2012.55762	1022.08337	-3140.67017	NaN	NaN	NaN
163	1.62	24.73938	1679.79358	1456.84863	52.29073	1688.60229	1567.42896	-70.02773	1600.54651	1479.1261	-43.24209	1608.05164	1596.41077	-67.79156	1431.70789	1505.18884	-95.10937	1138.48633	1502.75916	78.05847	1368.28455	1499.849	124.25211	1213.53186	1488.88013	-115.41156	1234.16089	1576.40356	13.93625	1401.11072	1342.02881	-14.37224	1220.25354	1252.11279	-21.06537	1067.67273	1244.51831	37.17994	967.06366	1221.24768	136.63547	871.02136	1240.70508	83.76957	854.06384	1217.84277	145.3678	795.06848	1210.92603	17.10196	1388.73535	1653.34131	-32.94349	1184.63501	1749.65771	-29.35266	1060.48438	1749.16919	0.57953	943.58789	1777.13062	83.35867	829.46747	1757.80261	39.02656	828.41187	1795.57324	78.40356	752.40521	1793.88879	81.08566	936.13751	1386.41199	86.57594	938.04871	1603.55212	-104.34834	940.82153	1442.69751	-99.90626	946.09406	1588.09973	101.71473	607.97882	1317.50134	107.62366	476.18631	1323.65149	-38.06412	365.78458	1315.56201	-203.20479	225.61322	1365.66113	-241.73677	236.53549	1426.85144	-165.37466	82.57503	1345.42432	56.03547	603.35767	1650.32532	78.46494	446.90103	1618.76135	32.45191	275.49344	1621.78369	11.32855	73.44801	1564.55945	-38.66016	37.14194	1515.31482	152.27414	35.46444	1561.9325	26.74896	1716.68457	1548.96313	1973.09204	1023.41437	-3101.79468	2012.44763	1021.93652	-3140.62671	NaN	NaN	NaN
